<svg width="108.294" height="122.88" xmlns="http://www.w3.org/2000/svg" xml:space="preserve" enable-background="new 0 0 108.294 122.88" version="1.1">

 <g>
  <title>Layer 1</title>
  <g id="svg_1">
   <path fill="#ff8000" id="svg_2" d="m4.873,9.058l33.35,0l0,-2.858l0,-0.013c0,-0.095 0.002,-0.186 0.014,-0.279c0.075,-1.592 0.762,-3.037 1.816,-4.086l-0.007,-0.007c1.104,-1.104 2.637,-1.79 4.325,-1.806l0.023,0.002l0,-0.011l0.031,0l19.884,0l0.016,0c0.106,0 0.207,0.009 0.309,0.022c1.583,0.084 3.019,0.76 4.064,1.81c1.102,1.104 1.786,2.635 1.803,4.315l-0.003,0.021l0.014,0l0,0.032l0,2.857l32.909,0l0.017,0c0.138,0 0.268,0.014 0.401,0.034c1.182,0.106 2.254,0.625 3.034,1.41l0.004,0.007l0.005,-0.007c0.851,0.857 1.386,2.048 1.401,3.368l-0.002,0.032l0.014,0l0,0.032l0,10.829c0,1.472 -1.195,2.665 -2.667,2.665l-0.07,0l-102.891,0c-1.472,-0.001 -2.667,-1.194 -2.667,-2.665l0,-0.063l0,-10.766l0,-0.014c0,-0.106 0.004,-0.211 0.018,-0.315l0,-0.021c0.089,-1.207 0.624,-2.304 1.422,-3.098l-0.007,-0.002c0.862,-0.861 2.057,-1.396 3.377,-1.414l0.032,0.002l0,-0.013l0.031,0l0,0zm72.917,40.039l-5.945,0l0,56.093l5.945,0l0,-56.093l0,0zm-19.33,0l-5.948,0l0,56.093l5.948,0l0,-56.093l0,0zm-19.33,0l-5.946,0l0,56.093l5.946,0l0,-56.093l0,0zm-28.293,-17.528l87.385,0l0.279,0.018l0.127,0.007l0.134,0.011l0.009,0l0.163,0.023c1.363,0.163 2.638,0.789 3.572,1.708c1.04,1.025 1.705,2.415 1.705,3.964c0,0.098 -0.009,0.193 -0.019,0.286l-0.002,0.068l-0.014,0.154l-7.393,79.335l-0.007,0.043l0.007,0l-0.016,0.139l-0.051,0.283l-0.002,0.005l-0.002,0.018c-0.055,0.331 -0.12,0.646 -0.209,0.928l-0.007,0.022l-0.002,0.005l-0.009,0.018l-0.023,0.062l-0.004,0.021c-0.118,0.354 -0.264,0.698 -0.432,1.009c-1.009,1.88 -2.879,3.187 -5.204,3.187l-72.692,0l-0.247,-0.014l0,0.003l-0.011,-0.003l-0.032,-0.004c-0.46,-0.023 -0.889,-0.091 -1.288,-0.202c-0.415,-0.116 -0.818,-0.286 -1.197,-0.495l-0.009,-0.002l-0.002,0.002c-1.785,-0.977 -2.975,-2.882 -3.17,-5.022l-7.294,-79.356l-0.011,-0.125l-0.011,-0.247l-0.004,-0.116l-0.005,0c0,-1.553 0.664,-2.946 1.707,-3.971c0.976,-0.955 2.32,-1.599 3.756,-1.726l0.122,-0.004l0,-0.007l0.3,-0.013l0.104,0.002l0,-0.014l-0.001,0zm87.386,5.334l-87.386,0l0,-0.007l-0.116,0.004c-0.163,0.022 -0.322,0.106 -0.438,0.222c-0.063,0.063 -0.104,0.132 -0.104,0.179l-0.007,0l0.007,0.118l7.282,79.244l-0.002,0l0.002,0.012c0.032,0.376 0.202,0.691 0.447,0.825l-0.002,0.004l0.084,0.032l0.063,0.012l0.077,0l72.695,0c0.207,0 0.399,-0.157 0.518,-0.377l0.084,-0.197l0.054,-0.216l0.014,-0.138l0.005,0l7.384,-79.21l-0.003,-0.11c0,-0.045 -0.041,-0.111 -0.103,-0.172c-0.12,-0.118 -0.286,-0.202 -0.451,-0.227l-0.104,0.002l0,0zm0.111,-0.002l-0.016,0l0.016,0l0,0zm0.549,0.512l0,-0.004l0,0.004l0,0zm5.297,0.377l-0.002,0.018l0.002,-0.018l0,0zm-63.293,-23.401l-35.555,0l0,7.706l97.63,0l0,-7.706l-35.055,0l-0.063,0c-1.472,0 -2.664,-1.192 -2.664,-2.664l0,-5.525l0,-0.032l0.007,0c-0.007,-0.22 -0.106,-0.433 -0.259,-0.585c-0.137,-0.141 -0.324,-0.229 -0.521,-0.252l-0.082,0l-0.016,0l-19.884,0l-0.031,0l0,-0.006c-0.213,0.007 -0.422,0.104 -0.576,0.259l-0.004,-0.004l-0.007,0.004c-0.131,0.134 -0.231,0.313 -0.259,0.501l0.007,0.102l0,0.013l0,5.524c-0.001,1.472 -1.196,2.665 -2.668,2.665l0,0z"/>
  </g>
 </g>
</svg>